<svg xmlns="http://www.w3.org/2000/svg" xmlns:xlink="http://www.w3.org/1999/xlink" width="704" zoomAndPan="magnify" viewBox="0 0 528 521.249983" height="695" preserveAspectRatio="xMidYMid meet" version="1.0"><defs><clipPath id="72857b3b28"><path d="M 305 468 L 345 468 L 345 482.609375 L 305 482.609375 Z M 305 468 " clip-rule="nonzero"/></clipPath><clipPath id="58b688934f"><path d="M 51.441406 56.929688 L 477.578125 56.929688 L 477.578125 483.066406 L 51.441406 483.066406 Z M 51.441406 56.929688 " clip-rule="nonzero"/></clipPath></defs><path fill="#f4e9cd" d="M 76.769531 130.105469 C 76.363281 130.105469 75.960938 129.992188 75.570312 129.773438 C 74.464844 129.109375 74.097656 127.6875 74.761719 126.582031 C 77.765625 121.550781 81.03125 116.753906 84.460938 112.332031 C 85.253906 111.316406 86.710938 111.132812 87.726562 111.90625 C 88.738281 112.699219 88.921875 114.15625 88.148438 115.171875 C 84.828125 119.449219 81.675781 124.09375 78.761719 128.960938 C 78.339844 129.699219 77.5625 130.105469 76.769531 130.105469 Z M 76.769531 130.105469 " fill-opacity="1" fill-rule="nonzero"/><path fill="#f4e9cd" d="M 43.871094 296.835938 C 42.691406 296.835938 41.675781 295.929688 41.546875 294.734375 C 38.539062 264.402344 41.25 230.535156 49.640625 194.0625 C 55.378906 169.0625 62.203125 149.667969 71.109375 133.035156 C 71.71875 131.894531 73.136719 131.46875 74.261719 132.078125 C 75.40625 132.6875 75.828125 134.105469 75.222656 135.230469 C 66.515625 151.492188 59.824219 170.519531 54.179688 195.113281 C 45.917969 231.085938 43.226562 264.457031 46.175781 294.273438 C 46.304688 295.5625 45.363281 296.6875 44.089844 296.816406 C 44.019531 296.835938 43.945312 296.835938 43.871094 296.835938 Z M 43.871094 296.835938 " fill-opacity="1" fill-rule="nonzero"/><path fill="#f4e9cd" d="M 52.132812 338.226562 C 51.136719 338.226562 50.214844 337.582031 49.902344 336.585938 C 48.515625 332.140625 45.585938 318.203125 43.667969 307.859375 C 43.425781 306.589844 44.277344 305.371094 45.53125 305.132812 C 46.800781 304.910156 48.019531 305.738281 48.257812 306.992188 C 50.398438 318.515625 53.183594 331.421875 54.363281 335.183594 C 54.75 336.421875 54.050781 337.730469 52.832031 338.097656 C 52.59375 338.191406 52.351562 338.226562 52.132812 338.226562 Z M 52.132812 338.226562 " fill-opacity="1" fill-rule="nonzero"/><g clip-path="url(#72857b3b28)"><path fill="#f4e9cd" d="M 308.308594 482.609375 C 307.203125 482.609375 306.222656 481.835938 306.019531 480.710938 C 305.78125 479.441406 306.613281 478.222656 307.882812 477.984375 C 319.1875 475.84375 330.347656 472.839844 341.042969 469.058594 C 342.257812 468.636719 343.585938 469.261719 344.011719 470.480469 C 344.4375 471.695312 343.808594 473.023438 342.589844 473.449219 C 331.675781 477.300781 320.277344 480.378906 308.75 482.554688 C 308.601562 482.59375 308.457031 482.609375 308.308594 482.609375 Z M 308.308594 482.609375 " fill-opacity="1" fill-rule="nonzero"/></g><path fill="#f4e9cd" d="M 364.960938 463.898438 C 364.09375 463.898438 363.265625 463.417969 362.859375 462.585938 C 362.289062 461.425781 362.765625 460.023438 363.929688 459.472656 C 424.179688 430.082031 468.9375 373.828125 483.671875 309.023438 C 483.949219 307.769531 485.203125 306.976562 486.457031 307.269531 C 487.710938 307.546875 488.503906 308.800781 488.207031 310.054688 C 480.867188 342.375 465.671875 373.644531 444.261719 400.492188 C 422.941406 427.242188 395.851562 449.089844 365.957031 463.675781 C 365.644531 463.824219 365.292969 463.898438 364.960938 463.898438 Z M 364.960938 463.898438 " fill-opacity="1" fill-rule="nonzero"/><path fill="#f4e9cd" d="M 394.230469 81.464844 C 393.785156 81.464844 393.34375 81.335938 392.957031 81.078125 C 382.851562 74.460938 372.023438 68.652344 360.792969 63.804688 C 359.613281 63.285156 359.058594 61.921875 359.578125 60.742188 C 360.09375 59.5625 361.457031 59.007812 362.636719 59.527344 C 374.128906 64.46875 385.175781 70.421875 395.5 77.171875 C 396.570312 77.871094 396.882812 79.328125 396.183594 80.398438 C 395.742188 81.097656 394.984375 81.464844 394.230469 81.464844 Z M 394.230469 81.464844 " fill-opacity="1" fill-rule="nonzero"/><path fill="#f4e9cd" d="M 342.941406 56.90625 C 342.703125 56.90625 342.460938 56.871094 342.222656 56.796875 C 337.078125 55.101562 331.765625 53.570312 326.4375 52.242188 C 325.183594 51.929688 324.425781 50.65625 324.738281 49.402344 C 325.054688 48.148438 326.324219 47.394531 327.578125 47.707031 C 333.019531 49.070312 338.441406 50.640625 343.699219 52.355469 C 344.914062 52.757812 345.597656 54.066406 345.191406 55.304688 C 344.839844 56.28125 343.917969 56.90625 342.941406 56.90625 Z M 342.941406 56.90625 " fill-opacity="1" fill-rule="nonzero"/><path fill="#f4e9cd" d="M 326.988281 52.296875 C 326.804688 52.296875 326.601562 52.28125 326.417969 52.222656 C 290.734375 43.28125 251.027344 42.453125 211.5625 49.863281 C 210.289062 50.105469 209.074219 49.273438 208.832031 48.003906 C 208.59375 46.730469 209.421875 45.511719 210.695312 45.273438 C 250.804688 37.75 291.210938 38.597656 327.542969 47.707031 C 328.796875 48.019531 329.554688 49.292969 329.238281 50.546875 C 328.980469 51.578125 328.042969 52.296875 326.988281 52.296875 Z M 326.988281 52.296875 " fill-opacity="1" fill-rule="nonzero"/><path fill="#f4e9cd" d="M 264.359375 474.515625 C 233.730469 474.515625 203.042969 468.285156 174.753906 455.785156 C 120.605469 431.851562 78.410156 385.796875 61.886719 332.601562 C 50.011719 294.328125 49.917969 249.027344 61.648438 197.992188 C 66.515625 176.789062 75.238281 145.703125 94.546875 120.757812 C 112.417969 97.671875 139.675781 79.4375 173.351562 68.023438 C 209.441406 55.78125 247.449219 50.675781 283.300781 53.238281 C 322.507812 56.039062 357.863281 67.601562 388.363281 87.550781 C 405.421875 98.722656 420.507812 112.128906 433.195312 127.375 C 473.730469 176.160156 490.125 245.191406 475.945312 307.527344 C 469.011719 338.0625 454.664062 367.597656 434.433594 392.949219 C 414.292969 418.207031 388.714844 438.859375 360.460938 452.632812 C 330.640625 467.195312 297.539062 474.5 264.359375 474.515625 Z M 265.007812 57.183594 C 235.683594 57.183594 205.238281 62.273438 174.917969 72.5625 C 142.148438 83.679688 115.683594 101.359375 98.382812 123.6875 C 79.628906 147.878906 71.109375 178.300781 66.351562 199.0625 C 54.824219 249.265625 54.863281 293.699219 66.5 331.164062 C 82.617188 383.066406 123.816406 428 176.707031 451.378906 C 234.320312 476.839844 302.242188 475.695312 358.378906 448.316406 C 415.179688 420.605469 457.390625 367.578125 471.277344 306.460938 C 485.128906 245.542969 469.121094 178.097656 429.507812 130.4375 C 417.132812 115.539062 402.417969 102.464844 385.746094 91.550781 C 350.925781 68.78125 309.25 57.183594 265.007812 57.183594 Z M 265.007812 57.183594 " fill-opacity="1" fill-rule="nonzero"/><path fill="#f4e9cd" d="M 71.238281 353.125 C 70.628906 353.125 70.019531 352.902344 69.558594 352.441406 C 68.617188 351.519531 68.601562 349.988281 69.523438 349.050781 C 73.414062 345.066406 76.769531 340.917969 78.761719 338.429688 C 79.148438 337.933594 79.5 337.527344 79.757812 337.195312 C 84.8125 330.980469 83.558594 322.425781 82.210938 313.375 C 81.398438 307.914062 80.570312 302.292969 81.25 297.148438 C 82.042969 291.046875 80.164062 287.007812 77.765625 281.882812 C 76.621094 279.429688 75.3125 276.644531 74.242188 273.382812 C 72.324219 267.59375 73.101562 262.613281 76.179688 261.011719 C 78.078125 260.015625 81.179688 259.976562 85.234375 265.417969 C 86.601562 267.261719 87.539062 268.828125 88.351562 270.210938 C 89.992188 272.996094 90.988281 274.65625 94.328125 276.441406 C 95.433594 277.03125 96.558594 277.566406 97.664062 278.082031 C 101.816406 280.019531 106.09375 282.03125 108.804688 287.246094 C 109.617188 288.8125 110.09375 290.457031 110.5 291.894531 C 111.367188 294.84375 111.957031 296.578125 114.097656 297.609375 C 115.203125 298.144531 116.457031 298.234375 117.914062 298.347656 C 120.128906 298.511719 122.636719 298.695312 125.179688 300.449219 C 126.96875 301.683594 128.316406 303.546875 129.625 305.335938 C 130.75 306.863281 131.894531 308.449219 133.109375 309.261719 C 135.785156 311.03125 136.539062 310.957031 136.558594 310.9375 C 136.835938 310.773438 137.460938 309.667969 137.941406 308.835938 C 138.3125 308.171875 138.734375 307.4375 139.25 306.644531 C 139.824219 305.757812 140.136719 305.167969 140.414062 304.6875 C 141.132812 303.363281 141.519531 302.753906 143.675781 300.632812 C 144.304688 300.023438 144.914062 299.472656 145.484375 298.953125 C 147.144531 297.460938 148.34375 296.390625 149.339844 294.328125 C 151.996094 288.777344 151.535156 280.351562 151.164062 273.566406 L 151.074219 271.6875 C 150.796875 266.117188 152.105469 262.929688 153.507812 259.574219 C 154.226562 257.839844 154.964844 256.070312 155.609375 253.710938 C 156.421875 250.742188 155.996094 247.773438 155.554688 244.636719 C 155.222656 242.296875 154.871094 239.863281 155.019531 237.300781 C 155.351562 231.179688 158.78125 226.917969 162.121094 222.808594 C 163.796875 220.742188 165.367188 218.789062 166.5625 216.613281 C 168.628906 212.90625 168.425781 209.164062 168.222656 205.199219 C 168.039062 201.769531 167.875 198.230469 169.054688 194.46875 C 170.050781 191.28125 171.949219 188.496094 173.757812 185.804688 C 175.453125 183.296875 177.058594 180.917969 177.925781 178.320312 C 179.566406 173.378906 178.753906 170.316406 177.5 165.671875 C 177.351562 165.097656 177.1875 164.507812 177.019531 163.902344 C 174.21875 153.039062 180.839844 150.347656 186.683594 147.96875 C 188.824219 147.105469 191.019531 146.199219 193.082031 144.910156 C 202.121094 139.230469 205.015625 129.402344 206.785156 119.613281 C 207.300781 116.753906 209.738281 113.066406 212.316406 109.160156 C 214.402344 105.988281 218.292969 100.089844 217.738281 98.449219 C 217.574219 98.28125 216.652344 97.96875 216.117188 97.785156 C 214.679688 97.304688 212.722656 96.640625 211.875 94.722656 C 211.285156 93.394531 211.394531 91.863281 212.207031 90.058594 C 213.902344 86.261719 218.515625 86.445312 221.28125 86.574219 C 221.980469 86.609375 222.628906 86.628906 223.070312 86.59375 C 224.601562 86.480469 226.851562 86.535156 229.691406 86.609375 C 236.457031 86.792969 252.320312 87.199219 253.664062 82.664062 C 253.886719 81.945312 253.628906 81.394531 252.890625 80.121094 C 252.023438 78.644531 250.734375 76.394531 251.859375 73.5 C 252.613281 71.601562 254.882812 70.3125 257.519531 68.816406 C 258.847656 68.082031 260.65625 67.046875 261.117188 66.457031 C 263.917969 62.9375 262.941406 61.09375 260.230469 56.925781 L 259.789062 56.242188 C 259.070312 55.136719 259.402344 53.644531 260.507812 52.925781 C 261.613281 52.207031 263.105469 52.519531 263.828125 53.644531 L 264.25 54.308594 C 266.777344 58.214844 269.929688 63.066406 264.859375 69.445312 C 263.808594 70.773438 261.890625 71.84375 259.863281 72.984375 C 258.679688 73.648438 256.726562 74.753906 256.265625 75.328125 C 256.0625 75.917969 256.246094 76.378906 257.003906 77.6875 C 257.871094 79.179688 259.070312 81.246094 258.238281 84.011719 C 255.824219 92.066406 240.625 91.664062 229.523438 91.367188 C 226.925781 91.292969 224.691406 91.238281 223.402344 91.332031 C 222.683594 91.386719 221.890625 91.347656 221.042969 91.3125 C 219.601562 91.257812 216.929688 91.144531 216.558594 91.957031 C 216.414062 92.308594 216.339844 92.546875 216.300781 92.695312 C 216.617188 92.859375 217.1875 93.046875 217.609375 93.191406 C 219.140625 93.707031 221.445312 94.484375 222.257812 96.863281 C 223.566406 100.734375 220.027344 106.097656 216.300781 111.757812 C 214.199219 114.949219 211.820312 118.542969 211.488281 120.425781 C 209.605469 130.769531 206.25 142.238281 195.609375 148.929688 C 193.195312 150.441406 190.6875 151.472656 188.472656 152.378906 C 182.570312 154.773438 179.878906 155.878906 181.648438 162.664062 C 181.796875 163.253906 181.964844 163.828125 182.109375 164.398438 C 183.417969 169.285156 184.5625 173.507812 182.460938 179.832031 C 181.390625 183.058594 179.511719 185.824219 177.703125 188.476562 C 176.007812 191.003906 174.402344 193.363281 173.589844 195.90625 C 172.667969 198.839844 172.816406 201.808594 172.980469 204.941406 C 173.203125 209.183594 173.441406 214.011719 170.730469 218.917969 C 169.332031 221.460938 167.542969 223.675781 165.808594 225.796875 C 162.839844 229.464844 160.015625 232.949219 159.777344 237.503906 C 159.667969 239.605469 159.960938 241.707031 160.273438 243.917969 C 160.773438 247.402344 161.289062 251.019531 160.203125 254.945312 C 159.480469 257.582031 158.632812 259.589844 157.894531 261.359375 C 156.570312 264.570312 155.609375 266.890625 155.832031 271.371094 L 155.921875 273.234375 C 156.328125 280.554688 156.828125 289.679688 153.636719 296.320312 C 152.234375 299.25 150.5 300.800781 148.65625 302.441406 C 148.121094 302.917969 147.570312 303.417969 146.996094 303.96875 C 145.261719 305.667969 145.097656 305.941406 144.582031 306.902344 C 144.304688 307.398438 143.917969 308.101562 143.273438 309.132812 C 142.828125 309.832031 142.460938 310.480469 142.089844 311.105469 C 140.964844 313.097656 139.898438 314.957031 137.648438 315.492188 C 135.730469 315.953125 133.625 315.273438 130.417969 313.132812 C 128.5 311.84375 127.078125 309.90625 125.714844 308.042969 C 124.589844 306.515625 123.539062 305.058594 122.433594 304.285156 C 120.957031 303.269531 119.371094 303.140625 117.546875 303.011719 C 115.847656 302.882812 113.929688 302.734375 112.011719 301.832031 C 107.828125 299.820312 106.792969 296.261719 105.871094 293.128906 C 105.484375 291.78125 105.117188 290.511719 104.507812 289.347656 C 102.550781 285.570312 99.492188 284.148438 95.617188 282.324219 C 94.457031 281.789062 93.277344 281.21875 92.058594 280.574219 C 87.539062 278.15625 85.992188 275.558594 84.222656 272.535156 C 83.429688 271.1875 82.617188 269.804688 81.398438 268.183594 C 79.796875 266.027344 78.761719 265.4375 78.375 265.289062 C 78.007812 266.007812 77.691406 268.386719 78.816406 271.777344 C 79.796875 274.765625 80.992188 277.292969 82.136719 279.742188 C 84.644531 285.109375 87.003906 290.160156 86.027344 297.664062 C 85.4375 302.144531 86.195312 307.214844 86.988281 312.5625 C 88.40625 322.242188 89.902344 332.253906 83.5 340.125 C 83.226562 340.457031 82.894531 340.863281 82.523438 341.34375 C 80.476562 343.90625 77.027344 348.183594 72.972656 352.3125 C 72.492188 352.882812 71.863281 353.125 71.238281 353.125 Z M 71.238281 353.125 " fill-opacity="1" fill-rule="nonzero"/><path fill="#f4e9cd" d="M 205.402344 162.40625 C 204.257812 162.40625 203.261719 161.59375 203.042969 160.453125 C 201.4375 151.988281 208.519531 144.855469 214.769531 138.566406 C 217.59375 135.726562 220.25 133.054688 221.6875 130.675781 C 223.585938 127.523438 223.234375 126.214844 222.480469 123.320312 C 222.148438 122.066406 221.761719 120.628906 221.503906 118.820312 C 220.726562 113.382812 220.839844 106.226562 225.761719 102.964844 C 226.628906 102.394531 227.753906 102.429688 228.566406 103.074219 C 230.226562 104.367188 231.683594 107.167969 233.542969 111.003906 C 234.136719 112.203125 234.6875 113.34375 235.113281 114.0625 C 236.605469 116.609375 237.898438 119.964844 239.039062 124.316406 C 239.484375 124.277344 239.945312 124.390625 240.332031 124.589844 C 243.726562 126.417969 244.332031 128.867188 244.242188 130.601562 C 243.890625 137.3125 231.8125 143.804688 229.597656 144.707031 C 225.726562 146.3125 222.960938 148.0625 219.472656 150.550781 C 218.128906 151.511719 216.613281 153.316406 215.175781 155.070312 C 212.410156 158.386719 209.550781 161.835938 205.769531 162.40625 C 205.640625 162.386719 205.511719 162.40625 205.402344 162.40625 Z M 226.941406 108.699219 C 225.542969 111.484375 225.964844 116 226.261719 118.136719 C 226.480469 119.667969 226.796875 120.902344 227.128906 122.101562 C 228.011719 125.421875 228.769531 128.277344 225.800781 133.183594 C 224.066406 136.058594 221.207031 138.9375 218.183594 141.976562 C 213.847656 146.328125 209.074219 151.140625 207.910156 155.953125 C 209.109375 154.847656 210.34375 153.371094 211.507812 151.988281 C 213.148438 150.015625 214.863281 147.96875 216.707031 146.644531 C 220.488281 143.949219 223.511719 142.050781 227.792969 140.28125 C 231.203125 138.878906 239.316406 133.367188 239.464844 130.363281 C 239.464844 130.25 239.484375 129.976562 239.152344 129.605469 C 238.671875 129.753906 238.136719 129.789062 237.546875 129.847656 C 236.367188 129.9375 235.277344 129.164062 235 128.003906 C 233.820312 122.859375 232.492188 119.097656 230.980469 116.496094 C 230.464844 115.613281 229.875 114.394531 229.246094 113.125 C 228.640625 111.90625 227.753906 110.082031 226.941406 108.699219 Z M 240.902344 126.730469 Z M 240.902344 126.730469 Z M 240.902344 126.730469 Z M 240.902344 126.730469 Z M 240.902344 126.730469 " fill-opacity="1" fill-rule="nonzero"/><path fill="#f4e9cd" d="M 194.742188 259.351562 C 189.835938 259.351562 184.433594 256.347656 181.980469 254.261719 C 177.019531 250.058594 175.65625 242.554688 178.644531 236.25 C 178.863281 232.894531 179.859375 224.414062 184.046875 221.976562 C 185.6875 221.019531 187.625 221.039062 189.503906 222.035156 C 192.308594 223.507812 191.996094 227.140625 191.753906 229.796875 C 191.683594 230.570312 191.609375 231.527344 191.664062 231.917969 C 192.105469 234.941406 193.785156 237.335938 195.203125 239.105469 C 195.738281 239.769531 196.550781 240.5625 197.417969 241.410156 C 200.699219 244.601562 206.175781 249.929688 201.863281 255.957031 C 200.515625 257.820312 198.523438 258.984375 196.109375 259.277344 C 195.648438 259.3125 195.1875 259.351562 194.742188 259.351562 Z M 182.515625 239.402344 C 181.097656 243.457031 182.09375 248.066406 185.078125 250.59375 C 187.3125 252.492188 192.199219 254.90625 195.5 254.503906 C 196.605469 254.375 197.378906 253.929688 197.933594 253.15625 C 199.574219 250.871094 198.0625 248.75 194.042969 244.859375 C 193.066406 243.917969 192.144531 243.015625 191.421875 242.128906 C 189.632812 239.898438 187.476562 236.800781 186.867188 232.636719 C 186.722656 231.675781 186.832031 230.570312 186.921875 229.390625 C 186.996094 228.46875 187.144531 226.847656 186.980469 226.183594 C 186.609375 226.035156 186.480469 226.109375 186.425781 226.144531 C 184.820312 227.066406 183.476562 233.003906 183.347656 237.667969 C 183.347656 238.351562 183.015625 238.976562 182.515625 239.402344 Z M 182.515625 239.402344 " fill-opacity="1" fill-rule="nonzero"/><path fill="#f4e9cd" d="M 184.875 333.488281 C 179.234375 333.488281 173.425781 331.570312 167.613281 327.792969 C 166.878906 327.3125 165.882812 326.757812 164.8125 326.167969 C 162.839844 325.082031 160.71875 323.9375 158.984375 322.574219 C 158.414062 322.535156 157.839844 322.277344 157.417969 321.816406 C 156.367188 320.691406 155.425781 319.421875 155.574219 317.6875 C 153.359375 310.496094 156.625 305.8125 159.796875 301.277344 C 161.511719 298.808594 163.300781 296.261719 164.441406 293.09375 C 167.945312 283.375 178.753906 269.621094 190.832031 271.023438 C 193.15625 271.296875 194.890625 272.183594 195.996094 273.660156 C 197.988281 276.3125 197.34375 279.964844 196.734375 283.503906 C 196.496094 284.925781 196.238281 286.417969 196.183594 287.707031 C 195.921875 293.40625 196.84375 295.136719 198.835938 298.9375 C 199.539062 300.28125 200.347656 301.8125 201.234375 303.785156 C 204.886719 311.859375 204.976562 320.027344 201.457031 325.632812 C 199.296875 329.082031 194.78125 333.230469 185.503906 333.46875 C 185.300781 333.488281 185.097656 333.488281 184.875 333.488281 Z M 160.625 317.558594 C 161.804688 319.050781 164.941406 320.785156 167.117188 321.964844 C 168.261719 322.59375 169.347656 323.183594 170.234375 323.773438 C 175.433594 327.144531 180.507812 328.785156 185.375 328.675781 C 191.019531 328.527344 195.167969 326.609375 197.378906 323.089844 C 200.035156 318.847656 199.851562 312.378906 196.863281 305.777344 C 196.035156 303.933594 195.257812 302.476562 194.578125 301.1875 C 192.476562 297.167969 191.074219 294.511719 191.367188 287.523438 C 191.441406 285.917969 191.71875 284.296875 191.996094 282.710938 C 192.417969 280.296875 192.878906 277.566406 192.144531 276.570312 C 191.867188 276.183594 191.238281 275.945312 190.28125 275.835938 C 180.449219 274.710938 171.542969 287.597656 168.960938 294.75 C 167.597656 298.511719 165.550781 301.445312 163.742188 304.042969 C 160.535156 308.652344 158.320312 311.824219 160.625 317.558594 Z M 160.625 317.558594 " fill-opacity="1" fill-rule="nonzero"/><path fill="#f4e9cd" d="M 226.703125 329.375 C 225.597656 329.375 224.472656 329.230469 223.363281 328.914062 C 217.519531 327.292969 216.355469 320.230469 215.34375 314.019531 C 214.882812 311.179688 214.382812 308.246094 213.535156 306.496094 C 211.0625 301.445312 209.902344 297.8125 211.800781 295.25 C 213.773438 292.613281 217.925781 292.890625 221.722656 293.515625 C 229.894531 294.863281 231.09375 297.976562 232.402344 302.972656 C 232.621094 303.804688 232.84375 304.707031 233.15625 305.667969 C 233.285156 305.683594 233.433594 305.703125 233.5625 305.757812 C 234.816406 306.128906 239.539062 307.234375 242.175781 307.710938 C 242.800781 307.824219 243.375 308.191406 243.726562 308.707031 C 244.09375 309.242188 244.222656 309.886719 244.113281 310.515625 C 243.226562 315.199219 239.648438 323.570312 233.472656 327.402344 C 231.296875 328.695312 229.027344 329.375 226.703125 329.375 Z M 215.65625 298.105469 C 215.5625 298.476562 215.601562 299.839844 217.832031 304.355469 C 219.011719 306.753906 219.527344 309.886719 220.082031 313.226562 C 220.875 318.019531 221.777344 323.457031 224.65625 324.269531 C 226.8125 324.878906 228.859375 324.546875 230.890625 323.292969 C 234.523438 321.042969 237.398438 316.15625 238.765625 311.898438 C 237.308594 311.585938 235.703125 311.214844 234.410156 310.902344 C 234.191406 311.417969 233.765625 311.859375 233.214844 312.121094 C 231.996094 312.671875 230.574219 312.136719 230.023438 310.9375 C 228.785156 308.246094 228.195312 305.980469 227.734375 304.15625 C 226.703125 300.191406 226.425781 299.140625 220.929688 298.234375 C 217.039062 297.589844 215.894531 297.996094 215.65625 298.105469 Z M 215.65625 298.105469 " fill-opacity="1" fill-rule="nonzero"/><path fill="#f4e9cd" d="M 185.429688 362.894531 C 180.929688 362.894531 176.558594 360.996094 175.121094 357.972656 C 174.402344 356.480469 173.40625 352.554688 179.640625 348.570312 C 183.679688 345.988281 189.027344 345.675781 194.207031 345.363281 C 197.582031 345.160156 200.773438 344.976562 203.300781 344.183594 C 206.03125 343.316406 208.371094 342.246094 210.640625 341.195312 C 214.828125 339.257812 219.179688 337.25 225.375 337.011719 C 227.625 336.917969 233.617188 336.695312 234.394531 340.679688 C 235.703125 347.445312 215.433594 356.183594 215.230469 356.277344 C 211.433594 357.640625 207.542969 358.085938 203.78125 358.507812 C 198.964844 359.0625 194.429688 359.558594 190.519531 361.957031 C 190.371094 362.046875 190.207031 362.121094 190.023438 362.195312 C 188.566406 362.65625 186.996094 362.894531 185.429688 362.894531 Z M 189.285156 359.890625 Z M 226.738281 341.785156 C 226.390625 341.785156 226.003906 341.785156 225.578125 341.804688 C 220.320312 342.007812 216.78125 343.648438 212.667969 345.546875 C 210.253906 346.652344 207.761719 347.8125 204.757812 348.753906 C 201.675781 349.730469 198.027344 349.933594 194.503906 350.15625 C 189.949219 350.433594 185.226562 350.710938 182.238281 352.609375 C 180.246094 353.878906 179.140625 355.207031 179.453125 355.890625 C 180.175781 357.402344 184.542969 358.804688 188.289062 357.679688 C 193.027344 354.875 198.230469 354.285156 203.246094 353.714844 C 206.894531 353.308594 210.328125 352.902344 213.609375 351.742188 C 218.238281 350.082031 227.128906 344.605469 229.246094 341.96875 C 228.75 341.859375 227.957031 341.785156 226.738281 341.785156 Z M 226.738281 341.785156 " fill-opacity="1" fill-rule="nonzero"/><path fill="#f4e9cd" d="M 159.980469 357.789062 C 155.277344 357.789062 150.207031 354.859375 146.316406 352.609375 C 145.449219 352.109375 144.671875 351.648438 143.992188 351.300781 C 142.203125 350.359375 140.339844 349.492188 138.550781 348.644531 C 133.148438 346.101562 127.558594 343.480469 122.96875 338.464844 C 122.582031 338.042969 113.542969 328.066406 117.15625 323.109375 C 119.683594 319.640625 125.382812 322.242188 127.246094 323.089844 C 132.207031 325.339844 137.148438 326.480469 141.925781 327.589844 C 146.222656 328.585938 150.667969 329.617188 154.984375 331.441406 C 155.054688 331.480469 155.148438 331.515625 155.222656 331.550781 C 160.183594 334.300781 172.261719 343.261719 168.777344 351.574219 C 167.542969 354.527344 165.625 356.460938 163.078125 357.308594 C 162.082031 357.640625 161.050781 357.789062 159.980469 357.789062 Z M 121.105469 326.132812 C 121.253906 327.550781 122.96875 331.351562 126.507812 335.203125 C 130.453125 339.515625 135.378906 341.839844 140.597656 344.273438 C 142.441406 345.140625 144.339844 346.027344 146.222656 347.023438 C 146.960938 347.410156 147.789062 347.886719 148.710938 348.421875 C 152.472656 350.597656 158.136719 353.863281 161.546875 352.71875 C 162.746094 352.3125 163.648438 351.316406 164.351562 349.675781 C 166.140625 345.398438 157.765625 338.449219 152.992188 335.773438 C 149.082031 334.152344 145.078125 333.210938 140.835938 332.234375 C 135.820312 331.074219 130.640625 329.875 125.253906 327.421875 C 122.910156 326.371094 121.675781 326.167969 121.105469 326.132812 Z M 121.105469 326.132812 " fill-opacity="1" fill-rule="nonzero"/><path fill="#f4e9cd" d="M 308.050781 311.859375 C 306.886719 311.859375 305.707031 311.585938 304.527344 310.9375 C 301.890625 309.464844 300.988281 306.753906 300.269531 304.558594 C 299.566406 302.457031 299.085938 301.128906 297.871094 300.597656 C 295.195312 299.414062 290.75 300.503906 286.824219 301.460938 C 284.203125 302.109375 281.714844 302.714844 279.539062 302.753906 C 274.007812 302.882812 272.070312 301.296875 269.800781 298.882812 C 268.953125 297.976562 268.085938 297.039062 266.609375 296.097656 C 265.136719 295.15625 262.921875 295.433594 260.582031 295.726562 C 257.90625 296.078125 254.882812 296.464844 252.464844 294.789062 C 248.425781 292.003906 248.703125 282.417969 250.546875 278.710938 C 255.894531 267.941406 266.742188 271.722656 274.375 274.765625 C 279.796875 263.886719 297.886719 267.222656 304.988281 268.550781 C 307.625 269.050781 310.390625 269.714844 313.046875 270.375 C 319.445312 271.960938 326.066406 273.601562 332.171875 272.902344 C 335.824219 272.480469 339.75 270.230469 343.570312 268.035156 C 349.046875 264.902344 354.726562 261.636719 360.71875 262.835938 C 361.992188 263.09375 362.839844 264.3125 362.621094 265.582031 C 362.601562 265.730469 362.65625 266.15625 362.675781 266.429688 C 362.675781 266.449219 362.675781 266.488281 362.691406 266.503906 C 367.320312 268.496094 369.703125 270.929688 369.941406 273.898438 C 370.402344 279.742188 362.011719 284.464844 355.261719 288.261719 C 354.890625 288.464844 354.542969 288.667969 354.191406 288.871094 C 356.054688 289.882812 357.457031 290.179688 360.8125 290.328125 C 361.496094 290.363281 362.140625 290.675781 362.582031 291.230469 C 363.007812 291.765625 363.191406 292.464844 363.082031 293.148438 C 361.640625 301.332031 349.839844 303.65625 344.378906 303.507812 C 341.484375 303.417969 338.867188 303.03125 336.339844 302.640625 C 330.9375 301.8125 326.675781 301.148438 321.972656 303.878906 C 320.996094 304.429688 319.796875 305.40625 318.542969 306.460938 C 315.667969 308.820312 311.921875 311.859375 308.050781 311.859375 Z M 294.917969 295.285156 C 296.632812 295.285156 298.292969 295.542969 299.804688 296.207031 C 303.035156 297.628906 304.03125 300.632812 304.824219 303.046875 C 305.46875 305.003906 305.929688 306.21875 306.851562 306.734375 C 308.917969 307.878906 311.867188 305.703125 315.519531 302.734375 C 316.9375 301.574219 318.285156 300.484375 319.59375 299.730469 C 325.753906 296.171875 331.507812 297.054688 337.097656 297.902344 C 339.476562 298.273438 341.945312 298.640625 344.546875 298.734375 C 348.160156 298.84375 354.230469 297.589844 356.996094 294.824219 C 353.636719 294.308594 351.921875 293.203125 348.824219 291.210938 L 348.328125 290.878906 C 347.644531 290.4375 347.238281 289.699219 347.21875 288.886719 C 347.203125 288.078125 347.609375 287.320312 348.273438 286.859375 C 349.46875 286.046875 351.074219 285.144531 352.9375 284.09375 C 356.976562 281.808594 365.40625 277.089844 365.183594 274.285156 C 365.109375 273.402344 363.597656 271.90625 359.539062 270.414062 C 358.488281 270.027344 357.84375 268.9375 357.992188 267.832031 C 358.007812 267.757812 357.992188 267.59375 357.972656 267.410156 C 354.230469 267.480469 350.207031 269.785156 345.964844 272.21875 C 341.726562 274.65625 337.355469 277.160156 332.726562 277.695312 C 325.773438 278.488281 318.726562 276.757812 311.90625 275.058594 C 309.195312 274.394531 306.628906 273.75 304.121094 273.289062 C 293.222656 271.28125 280.40625 270.046875 278.082031 278.5625 C 277.898438 279.226562 277.453125 279.78125 276.847656 280.074219 C 276.238281 280.386719 275.519531 280.40625 274.890625 280.167969 L 273.65625 279.667969 C 264.785156 276.109375 258.238281 274.121094 254.882812 280.886719 C 253.574219 283.503906 254.015625 290.03125 255.234375 290.859375 C 256.136719 291.488281 258.089844 291.230469 260.007812 290.988281 C 262.8125 290.640625 266.277344 290.179688 269.25 292.078125 C 271.222656 293.351562 272.421875 294.605469 273.359375 295.617188 C 274.929688 297.277344 275.628906 298.03125 279.484375 297.960938 C 281.125 297.921875 283.355469 297.386719 285.71875 296.796875 C 288.667969 296.078125 291.894531 295.285156 294.917969 295.285156 Z M 294.917969 295.285156 " fill-opacity="1" fill-rule="nonzero"/><path fill="#f4e9cd" d="M 262.644531 432.867188 C 260.929688 432.867188 259.179688 432.441406 257.390625 431.445312 C 255.417969 430.339844 254.496094 428.679688 253.757812 427.335938 C 253.296875 426.488281 252.890625 425.75 252.300781 425.25 C 251.25 424.347656 249.699219 423.832031 248.078125 423.261719 C 247.101562 422.929688 246.085938 422.578125 245.125 422.136719 C 242.507812 420.917969 233.839844 416.347656 232.679688 408.917969 C 232.289062 406.445312 232.660156 402.738281 236.515625 398.941406 C 237.621094 395.75 240.035156 393.539062 242.378906 391.402344 C 244.480469 389.484375 246.453125 387.675781 247.449219 385.28125 C 248.425781 382.917969 248.445312 380.613281 248.484375 378.179688 C 248.519531 375.027344 248.554688 371.765625 250.734375 368.613281 C 251.671875 367.246094 252.855469 366.472656 253.8125 365.863281 C 254.9375 365.128906 255.621094 364.683594 256.0625 363.449219 C 256.394531 362.527344 256.136719 360.71875 255.894531 359.117188 C 255.507812 356.515625 255.101562 353.824219 256.375 351.632812 C 259.179688 346.746094 264.5625 347.613281 268.492188 348.238281 C 271.148438 348.664062 273.636719 349.066406 274.707031 348 C 275.203125 347.5 275.1875 345.878906 275.167969 344.457031 C 275.132812 342.320312 275.09375 339.886719 276.53125 337.949219 C 278.523438 335.257812 283.117188 333.523438 287.15625 331.996094 C 288.464844 331.496094 289.683594 331.035156 290.621094 330.613281 C 298.921875 326.851562 303.605469 326.148438 311.113281 331.679688 C 311.847656 332.234375 312.625 332.878906 313.359375 333.523438 C 314.617188 334.613281 316.976562 336.621094 317.859375 336.476562 C 317.988281 336.457031 318.265625 336.199219 318.5625 335.683594 C 319.246094 334.503906 318.949219 332.085938 318.691406 329.746094 C 318.285156 326.207031 317.804688 322.203125 320.183594 319.292969 C 321.605469 317.539062 323.46875 316.542969 325.550781 316.398438 C 330.808594 316.027344 336.304688 321.136719 339.917969 324.507812 C 340.488281 325.042969 341.003906 325.523438 341.449219 325.910156 C 347.332031 331.035156 349.691406 332.511719 357.621094 333.984375 C 359.945312 334.429688 362.621094 334.558594 365.441406 334.707031 C 371.601562 335.019531 378.589844 335.367188 383.589844 339.257812 C 388.308594 342.945312 396.183594 349.105469 392.679688 358.324219 C 391.792969 360.664062 390.246094 362.417969 388.769531 364.113281 C 387.496094 365.550781 386.316406 366.914062 385.707031 368.464844 C 385.117188 370.011719 385.101562 371.929688 385.101562 373.941406 C 385.101562 375.894531 385.101562 377.921875 384.566406 379.933594 C 383.808594 382.828125 382.203125 385.261719 380.675781 387.640625 C 379.585938 389.316406 378.554688 390.902344 377.851562 392.5625 C 377.503906 393.410156 377.242188 394.40625 376.949219 395.457031 C 376.210938 398.222656 375.308594 401.671875 372.136719 403.734375 C 368.132812 406.335938 363.46875 405.910156 359.355469 405.523438 C 355.039062 405.117188 351.316406 404.769531 348.714844 407.515625 C 348.144531 408.125 347.882812 408.824219 347.570312 409.710938 C 346.960938 411.386719 346.132812 413.691406 342.90625 415.242188 C 339.273438 416.992188 334.917969 416.105469 331.066406 415.332031 C 329.941406 415.109375 328.890625 414.890625 327.96875 414.78125 C 324.59375 414.335938 321.308594 413.671875 318.136719 413.027344 C 311.589844 411.699219 305.394531 410.464844 298.71875 411.074219 C 292.246094 411.683594 288.628906 415 284.058594 419.203125 C 282.34375 420.773438 280.570312 422.414062 278.523438 424 C 277.785156 424.589844 277.011719 425.214844 276.21875 425.878906 C 272.550781 428.957031 267.847656 432.867188 262.644531 432.867188 Z M 263.714844 352.535156 C 262.148438 352.535156 261.152344 352.921875 260.542969 354.007812 C 260.121094 354.765625 260.414062 356.773438 260.65625 358.398438 C 260.988281 360.664062 261.335938 363.023438 260.582031 365.089844 C 259.585938 367.820312 257.757812 369 256.429688 369.867188 C 255.675781 370.34375 255.085938 370.730469 254.679688 371.320312 C 253.332031 373.277344 253.316406 375.453125 253.277344 378.21875 C 253.242188 380.871094 253.203125 383.878906 251.875 387.085938 C 250.472656 390.460938 247.894531 392.839844 245.605469 394.921875 C 243.410156 396.933594 241.53125 398.664062 240.921875 400.859375 C 240.8125 401.300781 240.570312 401.6875 240.238281 401.984375 C 238.007812 404.046875 237.085938 406.058594 237.398438 408.160156 C 238.027344 412.199219 243.042969 415.867188 247.136719 417.765625 C 247.875 418.097656 248.722656 418.394531 249.609375 418.707031 C 251.488281 419.351562 253.648438 420.089844 255.378906 421.5625 C 256.652344 422.652344 257.335938 423.90625 257.945312 425.011719 C 258.570312 426.15625 258.957031 426.835938 259.695312 427.242188 C 263.789062 429.53125 267.847656 426.597656 273.140625 422.210938 C 273.96875 421.527344 274.78125 420.84375 275.554688 420.238281 C 277.453125 418.761719 279.152344 417.195312 280.773438 415.703125 C 285.605469 411.257812 290.160156 407.054688 298.238281 406.316406 C 305.617188 405.632812 312.4375 407 319.042969 408.34375 C 322.140625 408.972656 325.332031 409.617188 328.558594 410.039062 C 329.644531 410.1875 330.789062 410.410156 331.988281 410.648438 C 335.085938 411.277344 338.609375 411.996094 340.785156 410.945312 C 342.242188 410.242188 342.5 409.523438 343.015625 408.105469 C 343.421875 406.960938 343.9375 405.5625 345.191406 404.234375 C 349.398438 399.808594 354.910156 400.304688 359.761719 400.765625 C 363.429688 401.097656 366.878906 401.429688 369.480469 399.734375 C 371.101562 398.664062 371.65625 396.617188 372.28125 394.238281 C 372.597656 393.078125 372.910156 391.863281 373.390625 390.71875 C 374.257812 388.652344 375.457031 386.808594 376.617188 385.019531 C 378.019531 382.882812 379.328125 380.871094 379.898438 378.734375 C 380.269531 377.3125 380.269531 375.671875 380.285156 373.941406 C 380.285156 371.582031 380.304688 369.128906 381.210938 366.75 C 382.113281 364.390625 383.644531 362.636719 385.136719 360.960938 C 386.390625 359.523438 387.589844 358.175781 388.179688 356.644531 C 390.078125 351.648438 387.128906 348.144531 380.617188 343.074219 C 376.820312 340.109375 370.917969 339.8125 365.183594 339.515625 C 362.324219 339.371094 359.375 339.222656 356.71875 338.726562 C 347.957031 337.082031 344.75 335.203125 338.277344 329.542969 C 337.796875 329.136719 337.242188 328.621094 336.617188 328.03125 C 333.960938 325.558594 329.054688 320.96875 325.847656 321.191406 C 325.332031 321.226562 324.648438 321.394531 323.875 322.332031 C 322.785156 323.679688 323.117188 326.480469 323.429688 329.210938 C 323.800781 332.328125 324.167969 335.535156 322.710938 338.097656 C 321.679688 339.886719 320.3125 340.9375 318.652344 341.230469 C 315.539062 341.785156 312.714844 339.351562 310.207031 337.210938 C 309.507812 336.605469 308.84375 336.03125 308.234375 335.589844 C 302.554688 331.40625 299.9375 331.679688 292.597656 335.019531 C 291.527344 335.5 290.214844 335.996094 288.851562 336.511719 C 285.9375 337.617188 281.53125 339.277344 280.367188 340.84375 C 279.90625 341.472656 279.925781 343.019531 279.964844 344.402344 C 280 346.652344 280.054688 349.472656 278.101562 351.410156 C 275.296875 354.210938 271.277344 353.566406 267.71875 352.996094 C 266.09375 352.71875 264.765625 352.535156 263.714844 352.535156 Z M 238.617188 400.230469 Z M 238.617188 400.230469 " fill-opacity="1" fill-rule="nonzero"/><path fill="#f4e9cd" d="M 350.816406 427.5 C 349.839844 427.5 348.953125 426.910156 348.585938 425.988281 C 347.089844 422.226562 347.683594 418.6875 350.246094 416.03125 C 354.394531 411.738281 362.398438 411.019531 367.433594 412.824219 C 368.335938 413.15625 368.964844 413.988281 369.019531 414.945312 C 369.3125 420.109375 365.273438 424.9375 360 425.675781 C 359.667969 425.710938 359.355469 425.695312 359.058594 425.621094 C 356.347656 426.523438 353.363281 427.355469 350.945312 427.5 C 350.910156 427.5 350.871094 427.5 350.816406 427.5 Z M 361.699219 416.695312 C 358.5625 416.695312 355.335938 417.675781 353.695312 419.371094 C 352.84375 420.253906 352.476562 421.25 352.585938 422.429688 C 355.207031 421.914062 358.324219 420.808594 359.503906 420.382812 C 360.019531 420.199219 360.554688 420.199219 361.050781 420.367188 C 362.472656 419.648438 363.578125 418.355469 364.019531 416.882812 C 363.285156 416.753906 362.492188 416.695312 361.699219 416.695312 Z M 361.699219 416.695312 " fill-opacity="1" fill-rule="nonzero"/><path fill="#f4e9cd" d="M 419.367188 394.054688 C 418.109375 394.054688 416.914062 393.722656 415.824219 393.078125 C 414.996094 392.582031 414.535156 391.640625 414.664062 390.679688 C 415.03125 388.007812 416.765625 385.59375 418.441406 383.269531 C 419.625 381.648438 420.839844 379.949219 421.320312 378.476562 C 421.875 376.816406 421.6875 374.789062 421.523438 372.648438 C 421.285156 369.753906 421.007812 366.472656 422.628906 363.558594 C 423.773438 361.511719 425.394531 360.460938 426.722656 359.632812 C 428.308594 358.617188 428.972656 358.15625 429.214844 356.628906 C 429.324219 355.964844 428.953125 355.058594 428.511719 354.027344 C 427.664062 352 426.390625 348.921875 428.789062 345.566406 C 432.054688 340.992188 438.839844 341.359375 443.265625 344.328125 C 448.613281 347.925781 448.023438 351.355469 446.4375 356.570312 C 444.816406 361.863281 432.957031 389.355469 422.335938 393.464844 C 421.339844 393.851562 420.34375 394.054688 419.367188 394.054688 Z M 436 346.910156 C 434.671875 346.910156 433.4375 347.316406 432.699219 348.367188 C 431.90625 349.472656 432.109375 350.210938 432.9375 352.203125 C 433.527344 353.621094 434.246094 355.390625 433.933594 357.402344 C 433.34375 361.109375 431.003906 362.601562 429.285156 363.6875 C 428.21875 364.371094 427.367188 364.925781 426.816406 365.902344 C 425.914062 367.542969 426.097656 369.828125 426.300781 372.242188 C 426.503906 374.660156 426.742188 377.386719 425.875 379.96875 C 425.15625 382.144531 423.71875 384.136719 422.335938 386.070312 C 421.597656 387.085938 420.859375 388.117188 420.304688 389.078125 C 420.398438 389.039062 420.488281 389.023438 420.582031 388.984375 C 428.457031 385.925781 439.707031 362.160156 441.828125 355.171875 C 443.265625 350.46875 443.191406 350.082031 440.574219 348.3125 C 439.394531 347.519531 437.621094 346.910156 436 346.910156 Z M 436 346.910156 " fill-opacity="1" fill-rule="nonzero"/><g clip-path="url(#58b688934f)"><path fill="#f4e9cd" d="M 264.511719 483.066406 C 147.0625 483.066406 51.441406 387.449219 51.441406 270 C 51.441406 152.550781 147.0625 56.929688 264.511719 56.929688 C 381.960938 56.929688 477.578125 152.550781 477.578125 270 C 477.578125 387.449219 381.960938 483.066406 264.511719 483.066406 Z M 264.511719 60.078125 C 148.742188 60.078125 54.589844 154.226562 54.589844 270 C 54.589844 385.769531 148.742188 479.917969 264.511719 479.917969 C 380.28125 479.917969 474.429688 385.769531 474.429688 270 C 474.429688 154.226562 380.28125 60.078125 264.511719 60.078125 Z M 264.511719 60.078125 " fill-opacity="1" fill-rule="nonzero"/></g></svg>