<svg xmlns="http://www.w3.org/2000/svg" xmlns:xlink="http://www.w3.org/1999/xlink" width="734" zoomAndPan="magnify" viewBox="0 0 550.5 546.000001" height="728" preserveAspectRatio="xMidYMid meet" version="1.0"><defs><clipPath id="08c0c815ac"><path d="M 44.925781 38.148438 L 512.492188 38.148438 L 512.492188 507.964844 L 44.925781 507.964844 Z M 44.925781 38.148438 " clip-rule="nonzero"/></clipPath><clipPath id="1fb3fb844a"><path d="M 37.945312 38.148438 L 503.265625 38.148438 L 503.265625 503.472656 L 37.945312 503.472656 Z M 37.945312 38.148438 " clip-rule="nonzero"/></clipPath></defs><g clip-path="url(#08c0c815ac)"><path fill="#031926" d="M 512.445312 255.007812 C 512.457031 254.839844 512.421875 254.671875 512.367188 254.519531 C 512.363281 254.507812 512.371094 254.5 512.363281 254.488281 L 465.746094 132.074219 C 465.738281 132.058594 465.722656 132.050781 465.714844 132.03125 C 465.636719 131.851562 465.53125 131.679688 465.367188 131.550781 L 362.839844 50.003906 C 362.683594 49.875 362.484375 49.78125 362.273438 49.746094 C 362.253906 49.742188 362.242188 49.742188 362.226562 49.742188 L 278.542969 38.359375 C 278.378906 38.339844 278.203125 38.351562 278.042969 38.394531 L 238.15625 49.726562 L 237.023438 49.726562 C 236.792969 49.726562 236.578125 49.792969 236.390625 49.90625 C 236.390625 49.90625 236.390625 49.90625 236.386719 49.90625 L 235.371094 50.515625 L 137.203125 78.417969 C 137.171875 78.429688 137.152344 78.453125 137.121094 78.464844 C 136.988281 78.511719 136.871094 78.582031 136.761719 78.675781 C 136.714844 78.710938 136.671875 78.742188 136.632812 78.785156 C 136.609375 78.808594 136.585938 78.820312 136.566406 78.847656 L 50.59375 190.4375 C 50.566406 190.472656 50.5625 190.511719 50.542969 190.546875 C 50.507812 190.597656 50.472656 190.640625 50.449219 190.695312 C 50.4375 190.730469 50.429688 190.765625 50.417969 190.800781 C 50.398438 190.867188 50.382812 190.933594 50.375 191 C 50.367188 191.042969 50.347656 191.078125 50.34375 191.117188 L 44.929688 289.257812 C 44.925781 289.34375 44.929688 289.433594 44.945312 289.519531 L 52.871094 339.152344 C 52.878906 339.21875 52.914062 339.273438 52.933594 339.335938 C 52.945312 339.378906 52.945312 339.421875 52.960938 339.460938 C 52.964844 339.472656 52.976562 339.480469 52.980469 339.492188 C 52.984375 339.503906 52.984375 339.519531 52.992188 339.53125 L 93.015625 415.757812 C 93.085938 415.890625 93.179688 416.007812 93.292969 416.109375 L 140.234375 457.605469 C 140.3125 457.691406 140.394531 457.765625 140.488281 457.828125 L 194.773438 494.410156 C 194.921875 494.511719 195.089844 494.574219 195.269531 494.605469 L 280.433594 507.847656 L 280.445312 507.847656 C 280.445312 507.847656 280.449219 507.847656 280.449219 507.847656 C 280.457031 507.847656 280.457031 507.851562 280.464844 507.851562 C 280.527344 507.859375 280.589844 507.867188 280.652344 507.867188 C 280.652344 507.867188 280.652344 507.867188 280.65625 507.867188 C 280.738281 507.867188 280.824219 507.855469 280.90625 507.839844 C 280.90625 507.839844 280.90625 507.839844 280.910156 507.835938 C 280.914062 507.835938 280.914062 507.835938 280.914062 507.835938 C 280.917969 507.835938 280.917969 507.835938 280.917969 507.835938 C 280.917969 507.835938 280.921875 507.835938 280.925781 507.835938 C 280.929688 507.832031 280.9375 507.832031 280.945312 507.828125 C 280.949219 507.832031 280.953125 507.828125 280.953125 507.828125 L 280.960938 507.824219 C 280.964844 507.824219 280.964844 507.820312 280.964844 507.820312 C 280.964844 507.820312 280.96875 507.820312 280.972656 507.820312 C 280.972656 507.824219 280.972656 507.820312 280.976562 507.820312 C 280.980469 507.816406 280.984375 507.816406 280.988281 507.8125 L 420.15625 467.148438 C 420.207031 467.132812 420.238281 467.082031 420.285156 467.058594 C 420.417969 467 420.523438 466.921875 420.628906 466.820312 C 420.675781 466.773438 420.746094 466.761719 420.785156 466.710938 L 505.449219 355.0625 C 505.585938 354.882812 505.644531 354.679688 505.671875 354.472656 C 505.675781 354.445312 505.695312 354.429688 505.699219 354.40625 Z M 503.316406 353.351562 L 466.699219 362.605469 L 509.507812 262.082031 Z M 354.734375 339.109375 L 219.804688 291.632812 L 321.570312 218.359375 Z M 321.574219 214.402344 L 220.097656 148.03125 L 352.035156 110.289062 Z M 320.121094 216.382812 L 218.410156 289.621094 L 218.410156 149.855469 Z M 215.957031 290.046875 L 100.527344 233.394531 L 215.957031 149.988281 Z M 240.957031 425.863281 L 130.921875 364.210938 L 216.359375 294.273438 Z M 218.78125 293.875 L 353.992188 341.449219 L 243.484375 426.03125 Z M 355.472656 343.402344 L 362.601562 444.542969 L 245.695312 427.425781 Z M 357.046875 338.261719 L 323.941406 217.730469 L 436.515625 228.980469 Z M 438.085938 230.988281 L 463.054688 362.808594 L 358.632812 340.242188 Z M 465.054688 360.207031 L 440.371094 229.882812 L 509.585938 255.628906 Z M 438.261719 225.148438 L 356.671875 110.367188 L 463.082031 133.441406 Z M 436.203125 226.484375 L 323.878906 215.261719 L 354.304688 111.265625 Z M 218.792969 145.855469 L 237.90625 52.753906 L 350.449219 108.191406 Z M 216.261719 145.988281 L 129.929688 117.125 L 235.257812 53.453125 Z M 214.53125 147.992188 L 100.15625 230.636719 L 127.898438 119.027344 Z M 97.460938 231.304688 L 53.351562 191.15625 L 124.796875 121.34375 Z M 125.933594 116.804688 L 63.167969 178.132812 L 134.675781 85.320312 Z M 96.691406 233.917969 L 55.203125 333.089844 L 52.839844 194 Z M 97.824219 237.5625 L 127.054688 362.527344 L 55.714844 338.222656 Z M 99.9375 235.832031 L 214.929688 292.273438 L 129.5 362.203125 Z M 239.460938 427.839844 L 142.183594 455.238281 L 130.296875 366.671875 Z M 241.988281 429.675781 L 278.238281 504.476562 L 145.183594 456.9375 Z M 281.109375 504.78125 L 244.753906 429.765625 L 360.777344 446.757812 Z M 364.988281 443.542969 L 357.875 342.585938 L 461.847656 365.058594 Z M 461.433594 368.542969 L 419.15625 464.429688 L 366.394531 445.558594 Z M 465.484375 365.441406 L 501.394531 356.367188 L 425.152344 456.902344 Z M 440.238281 227.214844 L 464.800781 136.472656 L 509.113281 252.835938 Z M 362.972656 53.246094 L 459.726562 130.203125 L 355.210938 107.539062 Z M 278.464844 40.824219 L 343.960938 49.726562 L 247.125 49.726562 Z M 360.652344 52.179688 L 352.863281 106.648438 L 242.285156 52.179688 Z M 129.035156 114.800781 L 138.535156 80.585938 L 227.414062 55.328125 Z M 47.378906 289.261719 L 50.917969 225.183594 L 52.554688 321.667969 Z M 95.082031 414.417969 L 62.601562 352.558594 L 133.269531 448.1875 Z M 57.394531 341.382812 L 127.636719 365.316406 L 139.308594 452.230469 Z M 149.898438 461.222656 L 268.050781 503.4375 L 195.910156 492.21875 Z M 364.128906 447.351562 L 415.847656 465.851562 L 287.050781 503.492188 Z M 364.128906 447.351562 " fill-opacity="1" fill-rule="nonzero"/></g><g clip-path="url(#1fb3fb844a)"><path fill="#000000" d="M 270.605469 503.472656 C 142.355469 503.472656 37.945312 399.058594 37.945312 270.8125 C 37.945312 142.5625 142.355469 38.148438 270.605469 38.148438 C 398.855469 38.148438 503.265625 142.5625 503.265625 270.8125 C 503.265625 399.058594 398.855469 503.472656 270.605469 503.472656 Z M 270.605469 41.589844 C 144.191406 41.589844 41.382812 144.394531 41.382812 270.8125 C 41.382812 397.226562 144.191406 500.03125 270.605469 500.03125 C 397.023438 500.03125 499.828125 397.226562 499.828125 270.8125 C 499.828125 144.394531 397.023438 41.589844 270.605469 41.589844 Z M 270.605469 41.589844 " fill-opacity="1" fill-rule="nonzero"/></g></svg>